#Comment line ignore any data following # character 
#Hierarchical Translation and Rotation (.htr) file 
[Header]	
#Header keywords are followed by a single value 
FileType HTR		#Single word string
DataType HTRS		#Translation followed by rotation and scale data
FileVersion 1		#integer
NumSegments 84		#integer
NumFrames 2		#integer
DataFrameRate 30		#integer, data frame rate in this file
EulerRotationOrder ZYX
CalibrationUnits mm
RotationUnits Degrees
GlobalAxisofGravity Y
BoneLengthAxis Y
ScaleFactor 1.00
[SegmentNames&Hierarchy]
#CHILD	PARENT
MASTER GLOBAL
root MASTER
chest root
L_mid_tent01 root
R_mid_tent01 root
spine01 root
Bip01_Neck chest
L_humerus chest
R_humerus chest
weapon_bone chest
Bip01_Head Bip01_Neck
eye_left_bone Bip01_Head
eye_right_bone Bip01_Head
L_forearm L_humerus
L_front_hand L_forearm
L_weapon_bone L_forearm
L_front_hand01_01 L_front_hand
L_front_hand02_01 L_front_hand
L_front_hand03_01 L_front_hand
L_front_hand01_02 L_front_hand01_01
L_front_hand02_02 L_front_hand02_01
L_front_hand03_02 L_front_hand03_01
R_forearm R_humerus
R_front_hand R_forearm
R_weapon_bone R_forearm
R_front_hand01_01 R_front_hand
R_front_hand02_01 R_front_hand
R_front_hand03_01 R_front_hand
R_front_hand01_02 R_front_hand01_01
R_front_hand02_02 R_front_hand02_01
R_front_hand03_02 R_front_hand03_01
null_rope01_connect L_mid_tent01
Rope1_Seg01 null_rope01_connect
Rope1_Seg02 Rope1_Seg01
Rope1_Seg03 Rope1_Seg02
Rope1_Seg04 Rope1_Seg03
Rope1_Seg05 Rope1_Seg04
Rope1_Seg06 Rope1_Seg05
Rope1_Seg07 Rope1_Seg06
Rope1_Seg09 Rope1_Seg07
L_mid_hand01 Rope1_Seg09
L_mid_hand02 Rope1_Seg09
L_mid_hand03 Rope1_Seg09
null_rope02_connect R_mid_tent01
Rope2_Seg01 null_rope02_connect
Rope2_Seg02 Rope2_Seg01
Rope2_Seg03 Rope2_Seg02
Rope2_Seg04 Rope2_Seg03
Rope2_Seg05 Rope2_Seg04
Rope2_Seg06 Rope2_Seg05
Rope2_Seg07 Rope2_Seg06
Rope2_Seg09 Rope2_Seg07
R_mid_hand01 Rope2_Seg09
R_mid_hand02 Rope2_Seg09
R_mid_hand03 Rope2_Seg09
spine02 spine01
spine03 spine02
pelvis spine03
null_rope03_connect pelvis
null_rope04_connect pelvis
Rope3_Seg01 null_rope03_connect
Rope3_Seg02 Rope3_Seg01
Rope3_Seg03 Rope3_Seg02
Rope3_Seg04 Rope3_Seg03
Rope3_Seg05 Rope3_Seg04
Rope3_Seg06 Rope3_Seg05
Rope3_Seg07 Rope3_Seg06
Rope3_Seg08 Rope3_Seg07
Rope3_Seg09 Rope3_Seg08
R_rear_hand01 Rope3_Seg09
R_rear_hand02 Rope3_Seg09
R_rear_hand03 Rope3_Seg09
Rope4_Seg01 null_rope04_connect
Rope4_Seg02 Rope4_Seg01
Rope4_Seg03 Rope4_Seg02
Rope4_Seg04 Rope4_Seg03
Rope4_Seg05 Rope4_Seg04
Rope4_Seg06 Rope4_Seg05
Rope4_Seg07 Rope4_Seg06
Rope4_Seg08 Rope4_Seg07
Rope4_Seg09 Rope4_Seg08
L_rear_hand01 Rope4_Seg09
L_rear_hand02 Rope4_Seg09
L_rear_hand03 Rope4_Seg09
[BasePosition]
#SegmentName Tx, Ty, Tz, Rx, Ry, Rz, BoneLength
MASTER 0.000000 0.000000 0.000000 -90.000000 0.000000 0.000000 10.000000 
root 0.000000 0.000000 0.000000 0.000000 0.000000 0.000000 10.000000 
chest 0.000000 0.000000 0.000000 0.000000 0.000000 0.000000 10.000000 
L_mid_tent01 0.000000 0.000000 0.000000 0.000000 0.000000 0.000000 10.000000 
R_mid_tent01 0.000000 0.000000 0.000000 0.000000 0.000000 0.000000 10.000000 
spine01 0.000000 0.000000 0.000000 0.000000 0.000000 0.000000 10.000000 
Bip01_Neck 0.000000 0.000000 0.000000 0.000000 0.000000 0.000000 10.000000 
L_humerus 0.000000 0.000000 0.000000 0.000000 0.000000 0.000000 10.000000 
R_humerus 0.000000 0.000000 0.000000 0.000000 0.000000 0.000000 10.000000 
weapon_bone 0.000000 0.000000 0.000000 0.000000 0.000000 0.000000 10.000000 
Bip01_Head 0.000000 0.000000 0.000000 0.000000 0.000000 0.000000 10.000000 
eye_left_bone 0.000000 0.000000 0.000000 0.000000 0.000000 0.000000 10.000000 
eye_right_bone 0.000000 0.000000 0.000000 0.000000 0.000000 0.000000 10.000000 
L_forearm 0.000000 0.000000 0.000000 0.000000 0.000000 0.000000 10.000000 
L_front_hand 0.000000 0.000000 0.000000 0.000000 0.000000 0.000000 10.000000 
L_weapon_bone 0.000000 0.000000 0.000000 0.000000 0.000000 0.000000 10.000000 
L_front_hand01_01 0.000000 0.000000 0.000000 0.000000 0.000000 0.000000 10.000000 
L_front_hand02_01 0.000000 0.000000 0.000000 0.000000 0.000000 0.000000 10.000000 
L_front_hand03_01 0.000000 0.000000 0.000000 0.000000 0.000000 0.000000 10.000000 
L_front_hand01_02 0.000000 0.000000 0.000000 0.000000 0.000000 0.000000 10.000000 
L_front_hand02_02 0.000000 0.000000 0.000000 0.000000 0.000000 0.000000 10.000000 
L_front_hand03_02 0.000000 0.000000 0.000000 0.000000 0.000000 0.000000 10.000000 
R_forearm 0.000000 0.000000 0.000000 0.000000 0.000000 0.000000 10.000000 
R_front_hand 0.000000 0.000000 0.000000 0.000000 0.000000 0.000000 10.000000 
R_weapon_bone 0.000000 0.000000 0.000000 0.000000 0.000000 0.000000 10.000000 
R_front_hand01_01 0.000000 0.000000 0.000000 0.000000 0.000000 0.000000 10.000000 
R_front_hand02_01 0.000000 0.000000 0.000000 0.000000 0.000000 0.000000 10.000000 
R_front_hand03_01 0.000000 0.000000 0.000000 0.000000 0.000000 0.000000 10.000000 
R_front_hand01_02 0.000000 0.000000 0.000000 0.000000 0.000000 0.000000 10.000000 
R_front_hand02_02 0.000000 0.000000 0.000000 0.000000 0.000000 0.000000 10.000000 
R_front_hand03_02 0.000000 0.000000 0.000000 0.000000 0.000000 0.000000 10.000000 
null_rope01_connect 0.000000 0.000000 0.000000 0.000000 0.000000 0.000000 10.000000 
Rope1_Seg01 0.000000 0.000000 0.000000 0.000000 0.000000 0.000000 10.000000 
Rope1_Seg02 0.000000 0.000000 0.000000 0.000000 0.000000 0.000000 10.000000 
Rope1_Seg03 0.000000 0.000000 0.000000 0.000000 0.000000 0.000000 10.000000 
Rope1_Seg04 0.000000 0.000000 0.000000 0.000000 0.000000 0.000000 10.000000 
Rope1_Seg05 0.000000 0.000000 0.000000 0.000000 0.000000 0.000000 10.000000 
Rope1_Seg06 0.000000 0.000000 0.000000 0.000000 0.000000 0.000000 10.000000 
Rope1_Seg07 0.000000 0.000000 0.000000 0.000000 0.000000 0.000000 10.000000 
Rope1_Seg09 0.000000 0.000000 0.000000 0.000000 0.000000 0.000000 10.000000 
L_mid_hand01 0.000000 0.000000 0.000000 0.000000 0.000000 0.000000 10.000000 
L_mid_hand02 0.000000 0.000000 0.000000 0.000000 0.000000 0.000000 10.000000 
L_mid_hand03 0.000000 0.000000 0.000000 0.000000 0.000000 0.000000 10.000000 
null_rope02_connect 0.000000 0.000000 0.000000 0.000000 0.000000 0.000000 10.000000 
Rope2_Seg01 0.000000 0.000000 0.000000 0.000000 0.000000 0.000000 10.000000 
Rope2_Seg02 0.000000 0.000000 0.000000 0.000000 0.000000 0.000000 10.000000 
Rope2_Seg03 0.000000 0.000000 0.000000 0.000000 0.000000 0.000000 10.000000 
Rope2_Seg04 0.000000 0.000000 0.000000 0.000000 0.000000 0.000000 10.000000 
Rope2_Seg05 0.000000 0.000000 0.000000 0.000000 0.000000 0.000000 10.000000 
Rope2_Seg06 0.000000 0.000000 0.000000 0.000000 0.000000 0.000000 10.000000 
Rope2_Seg07 0.000000 0.000000 0.000000 0.000000 0.000000 0.000000 10.000000 
Rope2_Seg09 0.000000 0.000000 0.000000 0.000000 0.000000 0.000000 10.000000 
R_mid_hand01 0.000000 0.000000 0.000000 0.000000 0.000000 0.000000 10.000000 
R_mid_hand02 0.000000 0.000000 0.000000 0.000000 0.000000 0.000000 10.000000 
R_mid_hand03 0.000000 0.000000 0.000000 0.000000 0.000000 0.000000 10.000000 
spine02 0.000000 0.000000 0.000000 0.000000 0.000000 0.000000 10.000000 
spine03 0.000000 0.000000 0.000000 0.000000 0.000000 0.000000 10.000000 
pelvis 0.000000 0.000000 0.000000 0.000000 0.000000 0.000000 10.000000 
null_rope03_connect 0.000000 0.000000 0.000000 0.000000 0.000000 0.000000 10.000000 
null_rope04_connect 0.000000 0.000000 0.000000 0.000000 0.000000 0.000000 10.000000 
Rope3_Seg01 0.000000 0.000000 0.000000 0.000000 0.000000 0.000000 10.000000 
Rope3_Seg02 0.000000 0.000000 0.000000 0.000000 0.000000 0.000000 10.000000 
Rope3_Seg03 0.000000 0.000000 0.000000 0.000000 0.000000 0.000000 10.000000 
Rope3_Seg04 0.000000 0.000000 0.000000 0.000000 0.000000 0.000000 10.000000 
Rope3_Seg05 0.000000 0.000000 0.000000 0.000000 0.000000 0.000000 10.000000 
Rope3_Seg06 0.000000 0.000000 0.000000 0.000000 0.000000 0.000000 10.000000 
Rope3_Seg07 0.000000 0.000000 0.000000 0.000000 0.000000 0.000000 10.000000 
Rope3_Seg08 0.000000 0.000000 0.000000 0.000000 0.000000 0.000000 10.000000 
Rope3_Seg09 0.000000 0.000000 0.000000 0.000000 0.000000 0.000000 10.000000 
R_rear_hand01 0.000000 0.000000 0.000000 0.000000 0.000000 0.000000 10.000000 
R_rear_hand02 0.000000 0.000000 0.000000 0.000000 0.000000 0.000000 10.000000 
R_rear_hand03 0.000000 0.000000 0.000000 0.000000 0.000000 0.000000 10.000000 
Rope4_Seg01 0.000000 0.000000 0.000000 0.000000 0.000000 0.000000 10.000000 
Rope4_Seg02 0.000000 0.000000 0.000000 0.000000 0.000000 0.000000 10.000000 
Rope4_Seg03 0.000000 0.000000 0.000000 0.000000 0.000000 0.000000 10.000000 
Rope4_Seg04 0.000000 0.000000 0.000000 0.000000 0.000000 0.000000 10.000000 
Rope4_Seg05 0.000000 0.000000 0.000000 0.000000 0.000000 0.000000 10.000000 
Rope4_Seg06 0.000000 0.000000 0.000000 0.000000 0.000000 0.000000 10.000000 
Rope4_Seg07 0.000000 0.000000 0.000000 0.000000 0.000000 0.000000 10.000000 
Rope4_Seg08 0.000000 0.000000 0.000000 0.000000 0.000000 0.000000 10.000000 
Rope4_Seg09 0.000000 0.000000 0.000000 0.000000 0.000000 0.000000 10.000000 
L_rear_hand01 0.000000 0.000000 0.000000 0.000000 0.000000 0.000000 10.000000 
L_rear_hand02 0.000000 0.000000 0.000000 0.000000 0.000000 0.000000 10.000000 
L_rear_hand03 0.000000 0.000000 0.000000 0.000000 0.000000 0.000000 10.000000 
#Beginning of Data. Separated by tabs
#Fr	Tx	Ty	Tz	Rx	Ry	Rz	SF
[MASTER]
12 0.000003 -0.000083 -1134.841064 0.001660 0.001660 0.001660 1134.841064
13 0.000003 -0.000080 -1316.875977 0.001660 0.001660 0.001660 1316.875977
[root]
12 -16.502298 -24.856173 1468.311035 -91.507584 -14.257371 -90.251251 1468.614258
13 -16.502298 -23.437237 1467.273193 -93.719780 -14.629578 -90.894905 1467.553101
[chest]
12 -84.512650 -34.090519 0.000000 -53.121365 1.128221 159.190765 91.129311
13 -84.512650 -34.090519 0.000000 -44.697315 -0.481966 160.137619 91.129311
[L_mid_tent01]
12 27.299280 22.178497 -249.918549 -41.871651 77.242935 42.774422 252.381500
13 27.299276 22.178511 -249.918549 -20.863827 71.087860 62.623398 252.381500
[R_mid_tent01]
12 23.228794 24.509907 226.238495 166.344315 -69.420929 82.991798 228.744751
13 23.228794 24.509907 226.238495 163.805618 -65.994507 85.485901 228.744751
[spine01]
12 -0.361383 -0.195265 0.000000 0.002062 0.001122 32.879822 0.410763
13 -0.361383 -0.195265 0.000000 0.002062 0.001122 32.879829 0.410763
[Bip01_Neck]
12 165.484543 71.581718 0.000119 176.643677 -1.657967 43.431911 180.302734
13 165.484543 71.581718 0.000119 176.643677 -1.657967 43.431911 180.302734
[L_humerus]
12 -13.983130 -135.272980 -120.471481 158.153732 69.732971 -110.839813 181.680161
13 -13.983130 -135.272980 -120.471481 156.317276 70.210121 -112.010353 181.680161
[R_humerus]
12 -13.983309 -135.273102 125.287651 -172.847656 -67.909355 -91.895416 184.909012
13 -13.983309 -135.273102 125.287651 -172.382233 -66.903763 -92.554054 184.909012
[weapon_bone]
12 235.964890 -300.705902 0.000000 0.000000 -89.951546 -128.212341 382.234833
13 235.964890 -300.705902 0.000000 0.000000 -89.951546 -128.212341 382.234833
[Bip01_Head]
12 213.329132 186.027176 7.753939 31.433893 5.983169 -43.833836 283.152863
13 213.328690 186.030167 7.714986 32.032150 6.038321 -43.834122 283.153442
[eye_left_bone]
12 -24.626970 125.451866 -64.772606 0.000000 -90.000000 -99.840431 143.318359
13 -24.626970 125.451866 -64.772606 0.000000 -90.000000 -99.840431 143.318359
[eye_right_bone]
12 -24.626970 125.451866 64.327362 0.000000 -89.980217 80.156387 143.117676
13 -24.626970 125.451866 64.327362 0.000000 -89.980217 80.156387 143.117676
[L_forearm]
12 322.776093 0.000000 -0.000119 0.000198 -0.002339 -99.693138 322.776093
13 322.776093 0.000000 -0.000119 0.000190 -0.002340 -99.273178 322.776093
[L_front_hand]
12 241.149185 -0.042021 -3.300071 -178.513123 -1.713548 -32.375252 241.171753
13 241.149185 -0.042021 -3.300071 -178.523804 -1.722670 -32.017338 241.171753
[L_weapon_bone]
12 156.183838 0.000000 0.000000 0.000014 0.000007 0.000001 156.183838
13 156.183838 0.000000 0.000000 0.000014 0.000007 0.000001 156.183838
[L_front_hand01_01]
12 86.095154 20.947098 -0.655860 -0.366594 -0.477154 75.385574 88.609184
13 86.095154 20.947098 -0.655860 -0.366594 -0.477154 75.385574 88.609184
[L_front_hand02_01]
12 86.935165 -11.437475 24.513514 154.399796 -59.883835 -61.369587 91.046425
13 86.935165 -11.437475 24.513514 154.399811 -59.883835 -61.369606 91.046425
[L_front_hand03_01]
12 86.637497 -14.123976 -20.424902 -153.913849 58.118122 -62.702866 90.126129
13 86.637497 -14.123976 -20.424902 -153.913834 58.118107 -62.702850 90.126129
[L_front_hand01_02]
12 71.020905 -0.000179 0.000030 0.000330 -0.002324 -106.154007 71.020905
13 71.020905 -0.000179 0.000030 0.000331 -0.002324 -106.206635 71.020905
[L_front_hand02_02]
12 71.020927 -0.000119 0.000060 0.000330 -0.002324 -106.154007 71.020927
13 71.020927 -0.000119 0.000060 0.000331 -0.002324 -106.206635 71.020927
[L_front_hand03_02]
12 71.020905 -0.000060 0.000060 0.000330 -0.002324 -106.154007 71.020905
13 71.020905 -0.000060 0.000060 0.000331 -0.002324 -106.206635 71.020905
[R_forearm]
12 322.776428 -0.000060 0.000030 0.212205 0.023885 -97.722168 322.776428
13 322.776428 -0.000060 0.000030 0.212369 0.021777 -97.337715 322.776428
[R_front_hand]
12 238.847015 -0.006795 2.210259 -1.542045 -10.853216 -32.170654 238.857239
13 238.847015 -0.006795 2.210259 -1.621633 -10.841878 -31.746361 238.857239
[R_weapon_bone]
12 155.664093 0.002503 -0.000030 0.003487 0.001180 -90.988930 155.664078
13 155.664093 0.002503 -0.000030 0.003487 0.001180 -90.988930 155.664078
[R_front_hand01_01]
12 87.624611 14.231146 22.918642 -154.633499 -59.950619 61.746044 91.683487
13 87.624611 14.231146 22.918642 -154.633499 -59.950626 61.746044 91.683487
[R_front_hand02_01]
12 89.356956 14.367283 -19.491137 154.602661 58.302849 63.744389 92.579636
13 89.356956 14.367283 -19.491137 154.602676 58.302849 63.744400 92.579636
[R_front_hand03_01]
12 87.286232 -22.307278 -0.143439 0.162155 -0.423168 -75.767921 90.091743
13 87.286232 -22.307278 -0.143439 0.162155 -0.423168 -75.767921 90.091743
[R_front_hand01_02]
12 71.020905 0.000060 0.000119 0.002323 -0.000334 106.381714 71.020905
13 71.020905 0.000060 0.000119 0.002323 -0.000334 106.381714 71.020905
[R_front_hand02_02]
12 71.020844 -0.000030 -0.000119 0.002323 -0.000334 106.381714 71.020836
13 71.020844 -0.000030 -0.000119 0.002323 -0.000334 106.381714 71.020836
[R_front_hand03_02]
12 71.020905 0.000000 0.000030 0.002323 -0.000334 106.381714 71.020905
13 71.020905 0.000000 0.000030 0.002323 -0.000334 106.381714 71.020905
[null_rope01_connect]
12 328.732483 0.000000 -0.000238 -161.086029 -7.880907 -171.525146 328.732483
13 328.732483 0.000000 -0.000238 -159.833984 -13.617917 -173.548996 328.732483
[Rope1_Seg01]
12 0.000019 -0.000052 0.000076 -15.339250 -7.037001 -168.227692 0.000095
13 0.000021 -0.000052 0.000083 -14.853751 -6.587362 -167.718079 0.000100
[Rope1_Seg02]
12 139.999863 -0.000179 0.000000 -12.903601 -11.899649 -14.818786 139.999863
13 139.999863 -0.000179 0.000000 -14.584602 -14.007348 -17.465055 139.999863
[Rope1_Seg03]
12 139.999924 0.000060 -0.000060 -10.401609 -10.398226 -24.356382 139.999924
13 139.999924 0.000060 -0.000060 -9.790825 -9.978404 -25.829391 139.999924
[Rope1_Seg04]
12 139.999924 -0.000060 -0.000119 -3.727638 -3.976443 -25.090813 139.999924
13 139.999924 -0.000060 -0.000119 -2.949658 -3.162495 -21.675375 139.999924
[Rope1_Seg05]
12 139.999832 0.000119 -0.000060 -0.263227 -2.909665 -4.579016 139.999832
13 139.999832 0.000119 -0.000060 -0.229453 -2.234469 -4.392503 139.999832
[Rope1_Seg06]
12 139.999954 0.000119 -0.000060 -0.047426 -2.892027 4.100056 139.999954
13 139.999954 0.000119 -0.000060 -0.042611 -2.193948 2.569955 139.999954
[Rope1_Seg07]
12 139.999985 0.000060 0.000000 -0.125420 -1.555626 0.616683 139.999985
13 139.999985 0.000060 0.000000 -0.090365 -1.249406 0.274667 139.999985
[Rope1_Seg09]
12 121.602913 0.000119 -0.000089 -89.793175 -1.359789 0.847147 121.602913
13 121.602913 0.000119 -0.000089 -89.793175 -1.359789 0.847147 121.602913
[L_mid_hand01]
12 103.859421 1.038730 8.195221 130.544373 -67.584534 -38.866943 104.187431
13 103.859421 1.038730 8.195221 130.544373 -67.584534 -38.866947 104.187431
[L_mid_hand02]
12 105.572853 -4.139662 -10.864139 -168.923172 43.409309 -73.498886 106.211075
13 105.572853 -4.139662 -10.864139 -168.923172 43.409309 -73.498886 106.211075
[L_mid_hand03]
12 104.641464 17.579376 -3.913581 -6.012627 17.808174 74.893669 106.179977
13 104.641464 17.579376 -3.913581 -6.012628 17.808178 74.893669 106.179977
[null_rope02_connect]
12 328.732849 0.000179 -0.000119 -144.059036 21.521673 5.440199 328.732849
13 328.732849 0.000179 -0.000119 -142.924957 26.979895 7.847111 328.732849
[Rope2_Seg01]
12 -0.000029 0.000102 0.000000 60.266228 51.496567 -5.207246 0.000106
13 -0.000024 0.000102 0.000000 57.818394 52.188015 -7.822379 0.000105
[Rope2_Seg02]
12 139.999741 -0.000060 -0.000119 0.141211 5.098979 -1.091099 139.999756
13 139.999741 -0.000060 -0.000119 -0.028431 5.553273 -2.049752 139.999756
[Rope2_Seg03]
12 140.000107 0.000030 0.000000 -0.070725 9.324902 -2.043643 140.000107
13 140.000107 0.000030 0.000000 -0.280971 9.702820 -3.621308 140.000107
[Rope2_Seg04]
12 139.999802 0.000000 -0.000060 -1.839946 20.612841 -6.851985 139.999802
13 139.999802 0.000000 -0.000060 -1.114947 17.175650 -9.400375 139.999802
[Rope2_Seg05]
12 139.999985 -0.000060 0.000119 -17.948828 38.690861 -3.224192 139.999985
13 139.999985 -0.000060 0.000119 -11.978549 35.286453 -8.729766 139.999985
[Rope2_Seg06]
12 139.999893 -0.000030 -0.000119 -13.418902 9.091697 3.216868 139.999893
13 139.999893 -0.000030 -0.000119 -21.680479 15.614046 2.157753 139.999893
[Rope2_Seg07]
12 139.999893 0.000060 -0.000060 -7.792893 3.734274 2.018954 139.999893
13 139.999893 0.000060 -0.000060 -15.599391 5.822993 2.567652 139.999893
[Rope2_Seg09]
12 121.338966 0.000089 -0.000060 33.793236 -1.359788 -0.847141 121.338966
13 121.338966 0.000089 -0.000060 33.793236 -1.359788 -0.847141 121.338966
[R_mid_hand01]
12 104.680779 11.144459 -10.335981 -16.212065 45.237247 70.462852 105.778534
13 104.680779 11.144459 -10.335981 -16.212063 45.237240 70.462852 105.778534
[R_mid_hand02]
12 104.070427 2.443552 8.231699 49.067368 -67.749771 39.286453 104.424065
13 104.070427 2.443552 8.231699 49.067387 -67.749794 39.286469 104.424065
[R_mid_hand03]
12 106.028137 -11.221827 -5.996406 -177.101105 15.551026 -76.585571 106.788818
13 106.028137 -11.221827 -5.996406 -177.101105 15.551029 -76.585594 106.788818
[spine02]
12 129.756927 0.001550 0.000119 -1.204347 -4.135710 9.315179 129.756927
13 129.756927 0.001550 0.000119 -1.203034 -4.117574 9.319854 129.756927
[spine03]
12 78.613960 0.083790 -4.898963 0.919199 4.653554 2.637945 78.766495
13 78.613960 0.083729 -4.898964 0.919589 4.617308 2.627733 78.766495
[pelvis]
12 169.435242 0.051022 0.000000 0.025989 0.004848 -13.934982 169.435257
13 169.435242 0.051022 0.000000 0.027789 -0.009881 -13.934985 169.435257
[null_rope03_connect]
12 -1.257226 -2.466202 137.391083 -157.340164 -87.682854 -129.208359 137.418976
13 -1.257226 -2.466202 137.391083 -153.943115 -85.259056 -132.252396 137.418976
[null_rope04_connect]
12 -1.259640 -2.480268 -137.844437 -157.340164 -87.682854 -129.208359 137.872513
13 -1.259640 -2.480268 -137.844437 -153.943115 -85.259056 -132.252396 137.872513
[Rope3_Seg01]
12 -0.000007 0.000010 -0.000038 13.289265 -8.367905 -57.013142 0.000040
13 -0.000008 0.000010 -0.000028 12.755047 -9.543589 -56.274979 0.000031
[Rope3_Seg02]
12 139.999924 -0.000119 0.000060 -1.880160 -4.859975 3.265230 139.999924
13 139.999924 -0.000119 0.000060 -1.801166 -4.597231 3.093982 139.999924
[Rope3_Seg03]
12 139.999924 -0.000119 0.000119 -2.360348 -6.123703 3.853850 139.999924
13 139.999924 -0.000119 0.000119 -2.137010 -5.498125 3.477250 139.999924
[Rope3_Seg04]
12 139.999924 0.000119 0.000000 -3.392659 -6.884851 6.583533 139.999924
13 139.999924 0.000119 0.000000 -2.778601 -5.080752 6.005566 139.999924
[Rope3_Seg05]
12 139.999924 -0.000238 0.000060 -4.064067 -8.558650 6.845204 139.999924
13 139.999924 -0.000238 0.000060 -3.148523 -6.441274 5.388760 139.999924
[Rope3_Seg06]
12 139.999893 -0.000119 -0.000060 -0.543053 -11.292793 -5.557848 139.999893
13 139.999893 -0.000119 -0.000060 -0.788954 -11.960244 -5.422758 139.999893
[Rope3_Seg07]
12 139.999771 0.000060 -0.000119 1.314514 -9.930553 -9.924720 139.999771
13 139.999771 0.000060 -0.000119 1.391709 -12.180019 -9.498584 139.999771
[Rope3_Seg08]
12 139.999985 -0.000060 0.000000 1.212932 -6.151755 -3.818639 139.999985
13 139.999985 -0.000060 0.000000 1.371612 -6.989853 -3.759536 139.999985
[Rope3_Seg09]
12 90.185997 -0.000179 -0.000060 89.793228 -1.359877 -0.847183 90.185997
13 90.185997 -0.000179 -0.000060 89.793228 -1.359877 -0.847183 90.185997
[R_rear_hand01]
12 103.366196 -6.073594 -10.757982 -177.714203 24.565966 -73.910957 104.101845
13 103.366196 -6.073594 -10.757982 -177.714203 24.565960 -73.910950 104.101845
[R_rear_hand02]
12 100.509819 12.039542 -7.992327 -12.874831 36.868481 72.167213 101.543350
13 100.509819 12.039542 -7.992327 -12.874834 36.868492 72.167213 101.543350
[R_rear_hand03]
12 101.539970 5.215704 5.435467 71.484634 -71.816666 21.513840 101.819031
13 101.539970 5.215704 5.435467 71.484627 -71.816643 21.513817 101.819031
[Rope4_Seg01]
12 0.000000 0.000000 0.000000 -93.119949 -24.291809 -119.416176 0.000000
13 0.000000 0.000000 0.000000 -92.665474 -25.863092 -119.868240 0.000000
[Rope4_Seg02]
12 139.999985 0.000060 0.000119 1.646310 9.924140 -9.553271 139.999985
13 139.999985 0.000060 0.000119 1.783773 12.357423 -6.685003 139.999985
[Rope4_Seg03]
12 139.999924 0.000000 -0.000238 3.517429 12.307622 -13.954277 139.999924
13 139.999924 0.000000 -0.000238 5.626783 17.473173 -12.917583 139.999924
[Rope4_Seg04]
12 139.999985 0.000000 0.000119 5.008022 10.739352 -15.248927 139.999985
13 139.999985 0.000000 0.000119 10.376556 16.241692 -18.029486 139.999985
[Rope4_Seg05]
12 139.999802 -0.000060 -0.000119 6.780764 14.477513 -15.179252 139.999802
13 139.999802 -0.000060 -0.000119 15.461231 24.199125 -10.736217 139.999802
[Rope4_Seg06]
12 139.999924 0.000000 0.000060 7.610282 10.701827 -13.418556 139.999924
13 139.999924 0.000000 0.000060 15.116638 12.717222 -8.214582 139.999924
[Rope4_Seg07]
12 139.999802 0.000000 0.000000 5.221982 4.510287 -8.784549 139.999802
13 139.999802 0.000000 0.000000 8.573237 3.643459 -5.518322 139.999802
[Rope4_Seg08]
12 139.999924 0.000000 0.000119 1.450533 2.037110 -5.119010 139.999924
13 139.999924 0.000000 0.000119 3.176421 1.486990 -3.228176 139.999924
[Rope4_Seg09]
12 90.185791 0.000060 0.000060 -135.617828 2.228885 0.850567 90.185791
13 90.185791 0.000060 0.000060 -135.617828 2.228885 0.850567 90.185791
[L_rear_hand01]
12 101.696655 -8.392275 -7.654577 -12.874831 -36.868481 107.832764 102.329041
13 101.696655 -8.392275 -7.654577 -12.874834 -36.868492 107.832779 102.329041
[L_rear_hand02]
12 102.726799 -1.568258 5.773216 71.484634 71.816666 158.486176 102.900848
13 102.726799 -1.568258 5.773216 71.484627 71.816643 158.486160 102.900848
[L_rear_hand03]
12 104.552910 9.721220 -10.420293 -177.714203 -24.565966 -106.089035 105.519653
13 104.552910 9.721220 -10.420293 -177.714203 -24.565960 -106.089035 105.519653
